<svg id="Capa_1" enable-background="new 0 0 512 512" height="512" viewBox="0 0 512 512" width="512" xmlns="http://www.w3.org/2000/svg"><g><g><g><circle cx="256" cy="256" fill="#ecf4ff" r="256"/></g><g><path d="m409.033 50.759c31.881 42.688 50.759 95.656 50.759 153.033 0 141.385-114.615 256-256 256-57.377 0-110.345-18.878-153.033-50.759 46.678 62.501 121.233 102.967 205.241 102.967 141.385 0 256-114.615 256-256 0-84.008-40.466-158.563-102.967-205.241z" fill="#ddeafb"/></g></g><g><path d="m330.22 158.073c-31.427-1.175-59.027 15.644-73.341 40.967-.39.69-1.367.69-1.757 0-14.314-25.324-41.916-42.144-73.344-40.967-41.696 1.561-75.646 35.281-77.471 76.966-1.421 32.477 16.376 60.945 42.969 74.985 19.85 10.479 38.614 22.896 55.411 37.786l6.264 5.553c15.141 13.422 28.831 28.397 40.844 44.678l3.772 5.112c1.209 1.638 3.658 1.638 4.867 0l3.772-5.112c12.013-16.281 25.702-31.255 40.843-44.677l6.264-5.553c16.797-14.89 35.562-27.307 55.412-37.787 26.594-14.04 44.391-42.509 42.968-74.988-1.826-41.686-35.777-75.404-77.473-76.963z" fill="#dd636e"/></g><g><g><path d="m407.737 236.258c-.82-28.217-16.539-53.114-39.542-66.883 6.851 11.442 10.96 24.663 11.369 38.71.923 31.729-16.488 59.482-42.422 73.451-20.803 11.205-40.497 24.357-58.179 40.031l-4.09 3.626c-15.14 13.421-28.829 28.395-40.841 44.675l-3.502 4.746c6.822 7.462 13.253 15.281 19.264 23.428l3.772 5.112c1.209 1.638 3.658 1.638 4.867 0l3.772-5.112c12.012-16.279 25.7-31.253 40.839-44.673l4.092-3.628c17.681-15.674 37.375-28.826 58.178-40.031 25.935-13.97 43.346-41.723 42.423-73.452z" fill="#d82e3d"/></g></g></g></svg>