<svg id="Capa_1" enable-background="new 0 0 512 512" height="512" viewBox="0 0 512 512" width="512" xmlns="http://www.w3.org/2000/svg"><g><g><path d="m372.287 81.152c-48.899 0-94.039-16.087-130.42-43.256-36.382 27.169-81.522 43.256-130.421 43.256-16.084 0-31.756-1.756-46.849-5.059l15.499 210.019c4.243 57.498 35.52 109.57 84.285 140.326l77.484 48.869 77.769-48.751c49.146-30.808 80.631-83.226 84.743-141.084l14.882-209.406c-15.13 3.32-30.843 5.086-46.972 5.086z" fill="#78d090"/></g><g><path d="m372.287 81.151c-9.424 0-18.705-.603-27.814-1.762l-11.851 166.755c-4.112 57.858-35.597 110.276-84.743 141.084l-73.055 45.796 67.042 42.283 77.769-48.751c49.146-30.808 80.631-83.227 84.743-141.084l14.882-209.406c-15.131 3.32-30.844 5.085-46.973 5.085z" fill="#6ec186"/></g><g><g><path d="m250.033 509.644c-5.025 3.15-11.41 3.141-16.426-.023l-87.058-54.908c-57.484-36.255-94.79-98.364-99.791-166.143l-17.784-240.964c-.506-6.862 5.736-12.276 12.457-10.806l30.313 6.633c12.999 2.845 26.357 4.287 39.702 4.287 40.162 0 78.344-12.66 110.417-36.611l10.771-8.043c5.476-4.089 12.989-4.089 18.464 0l10.771 8.043c32.074 23.951 70.255 36.611 110.418 36.611 13.384 0 26.777-1.45 39.807-4.309l30.243-6.638c6.712-1.473 12.953 3.922 12.466 10.776l-17.077 240.29c-4.85 68.252-42.358 130.698-100.333 167.041zm-144.563-395.132c-2.425-.058-4.368 1.992-4.189 4.411l12.157 164.727c3.447 46.714 29.159 89.522 68.779 114.51l55.328 34.896c2.675 1.687 6.081 1.692 8.761.012l55.575-34.838c39.958-25.048 65.809-68.087 69.152-115.128l11.669-164.195c.172-2.416-1.77-4.46-4.192-4.4-2.074.051-4.148.077-6.222.077-45.116 0-88.413-11.743-126.729-34.179-2.285-1.338-5.097-1.338-7.382 0-38.317 22.436-81.613 34.179-126.729 34.179-1.994-.001-3.986-.025-5.978-.072z" fill="#5e54ac"/></g></g><g><g><path d="m442.337 36.774-16.382 3.596-16.388 230.595c-4.85 68.252-42.358 130.698-100.333 167.041l-94.878 59.475 19.25 12.141c5.016 3.164 11.402 3.173 16.426.023l87.36-54.762c57.975-36.343 95.483-98.789 100.333-167.041l17.077-240.29c.488-6.856-5.754-12.251-12.465-10.778z" fill="#524798"/></g></g><g><path d="m312.094 231.232c0 15.736-5.177 30.263-13.921 41.971-12.801 17.14-33.248 17.36-56.285 17.36s-43.484-.22-56.285-17.36c-8.744-11.707-13.921-26.235-13.921-41.971 0-38.774 31.433-70.207 70.207-70.207s70.205 31.432 70.205 70.207z" fill="#ecf4ff"/></g><g><circle cx="241.887" cy="224.092" fill="#524798" r="28.777"/></g><g><path d="m258.437 248.82h-33.1c-17.347 0-32.368 9.915-39.735 24.382 12.801 17.14 33.247 28.237 56.285 28.237s43.483-11.097 56.285-28.237c-7.367-14.466-22.388-24.382-39.735-24.382z" fill="#524798"/></g><g><g><circle cx="396.578" cy="367.26" fill="#ecf4ff" r="79.053"/></g><g><path d="m437.013 299.317c7.055 11.83 11.112 25.662 11.112 40.437 0 43.66-35.393 79.053-79.053 79.053-14.775 0-28.612-4.066-40.443-11.121 13.793 23.128 39.065 38.628 67.949 38.628 43.66 0 79.053-35.393 79.053-79.053 0-28.885-15.49-54.151-38.618-67.944z" fill="#ddeafb"/></g><g><path d="m394.52 394.983c-1.959 0-3.851-.746-5.286-2.096l-35.151-33.074c-3.103-2.92-3.252-7.802-.332-10.906 2.92-3.103 7.802-3.252 10.906-.332l29.277 27.547 75.558-87.804c2.78-3.23 7.651-3.594 10.88-.816 3.23 2.78 3.595 7.651.816 10.88l-80.819 93.918c-1.374 1.596-3.34 2.561-5.442 2.672-.136.007-.271.011-.407.011z" fill="#80e29d"/></g></g></g></svg>