<svg id="Capa_1" enable-background="new 0 0 512 512" height="512" viewBox="0 0 512 512" width="512" xmlns="http://www.w3.org/2000/svg"><g><g><path d="m237 397c-11.046 0-20 8.954-20 20v40c0 11.046 8.954 20 20 20h80c8.284 0 15-6.716 15-15v-50c0-8.284-6.716-15-15-15z" fill="#45f6ff"/><path d="m477 397h-160v80h160c11.046 0 20-8.954 20-20v-40c0-11.046-8.954-20-20-20z" fill="#ff6378"/></g><path d="m237 216c-11.046 0-20 8.954-20 20v40c0 11.046 8.954 20 20 20h120c8.284 0 15-6.716 15-15v-50c0-8.284-6.716-15-15-15z" fill="#45f6ff"/><path d="m477 216h-120v80h120c11.046 0 20-8.954 20-20v-40c0-11.046-8.954-20-20-20z" fill="#ff6378"/><path d="m80.979 150c-3.979 0-7.794-1.58-10.606-4.394l-54.791-54.791c-10.048-10.046-15.582-23.406-15.582-37.616s5.534-27.569 15.582-37.617c10.047-10.048 23.406-15.582 37.617-15.582 9.961 0 19.503 2.719 27.78 7.806 8.278-5.087 17.82-7.806 27.781-7.806 14.21 0 27.569 5.534 37.616 15.582 10.048 10.048 15.582 23.407 15.582 37.617s-5.534 27.569-15.582 37.617l-54.79 54.79c-2.813 2.814-6.628 4.394-10.607 4.394z" fill="#ff6378"/><g><path d="m237 35c-11.046 0-20 8.954-20 20v40c0 11.046 8.954 20 20 20h180c8.284 0 15-6.716 15-15v-50c0-8.284-6.716-15-15-15z" fill="#45f6ff"/><g><path d="m217 75v20c0 11.046 8.954 20 20 20h180c8.284 0 15-6.716 15-15v-25z" fill="#2ebeef"/></g><g><path d="m477 35h-60v80h60c11.046 0 20-8.954 20-20v-40c0-11.046-8.954-20-20-20z" fill="#ff6378"/></g><g><path d="m417 75v40h60c11.046 0 20-8.954 20-20v-20z" fill="#d0004f"/></g><path d="m477 130h-240c-19.299 0-35-15.701-35-35v-40c0-19.299 15.701-35 35-35h240c19.299 0 35 15.701 35 35v40c0 19.299-15.701 35-35 35zm-240-80c-2.757 0-5 2.243-5 5v40c0 2.757 2.243 5 5 5h240c2.757 0 5-2.243 5-5v-40c0-2.757-2.243-5-5-5z" fill="#f9f9f9"/><g><path d="m482 75v20c0 2.757-2.243 5-5 5h-240c-2.757 0-5-2.243-5-5v-20h-30v20c0 19.299 15.701 35 35 35h240c19.299 0 35-15.701 35-35v-20z" fill="#e4e4ff"/></g></g><path d="m477 492h-240c-19.299 0-35-15.701-35-35v-40c0-19.299 15.701-35 35-35h240c19.299 0 35 15.701 35 35v40c0 19.299-15.701 35-35 35zm-240-80c-2.757 0-5 2.243-5 5v40c0 2.757 2.243 5 5 5h240c2.757 0 5-2.243 5-5v-40c0-2.757-2.243-5-5-5z" fill="#f9f9f9"/><path d="m477 311h-240c-19.299 0-35-15.701-35-35v-40c0-19.299 15.701-35 35-35h240c19.299 0 35 15.701 35 35v40c0 19.299-15.701 35-35 35zm-240-80c-2.757 0-5 2.243-5 5v40c0 2.757 2.243 5 5 5h240c2.757 0 5-2.243 5-5v-40c0-2.757-2.243-5-5-5z" fill="#f9f9f9"/><path d="m119.968 321c-2.387 0-4.783-.569-6.978-1.723l-32.01-16.829-32.01 16.829c-5.055 2.657-11.179 2.214-15.797-1.142-4.619-3.356-6.933-9.044-5.968-14.671l6.113-35.645-25.896-25.242c-4.089-3.985-5.561-9.946-3.796-15.377 1.765-5.43 6.458-9.388 12.108-10.208l35.789-5.2 16.005-32.431c2.527-5.12 7.741-8.361 13.451-8.361s10.924 3.241 13.451 8.361l16.005 32.431 35.789 5.2c5.65.82 10.344 4.778 12.108 10.208 1.765 5.431.293 11.392-3.796 15.377l-25.896 25.243 6.113 35.645c.965 5.627-1.349 11.314-5.968 14.671-2.612 1.898-5.707 2.864-8.817 2.864z" fill="#ffe196"/><path d="m80.979 512c-1.892 0-3.783-.357-5.57-1.073-36.103-14.44-59.43-48.895-59.43-87.778v-46.149c0-8.284 6.716-15 15-15h100c8.284 0 15 6.716 15 15v46.148c0 38.883-23.327 73.338-59.43 87.778-1.786.717-3.678 1.074-5.57 1.074z" fill="#45f6ff"/><g><path d="m146.376 90.816c10.048-10.048 15.582-23.407 15.582-37.617s-5.534-27.569-15.582-37.617c-10.047-10.048-23.406-15.582-37.616-15.582-9.961 0-19.503 2.719-27.78 7.806v142.194c3.979 0 7.794-1.58 10.606-4.394z" fill="#d0004f"/><path d="m146.225 216.992-35.789-5.2-16.005-32.431c-2.527-5.12-7.741-8.361-13.451-8.361v131.448l32.01 16.829c2.195 1.153 4.592 1.723 6.978 1.723 3.11 0 6.205-.966 8.818-2.864 4.619-3.356 6.933-9.044 5.968-14.671l-6.113-35.645 25.896-25.243c4.089-3.985 5.561-9.946 3.796-15.377-1.765-5.43-6.458-9.388-12.108-10.208z" fill="#ffb454"/><path d="m86.55 510.927c36.103-14.44 59.43-48.895 59.43-87.778v-46.149c0-8.284-6.716-15-15-15h-50v150c1.891 0 3.783-.357 5.57-1.073z" fill="#2ebeef"/></g><g><path d="m237 397c-11.046 0-20 8.954-20 20v40c0 11.046 8.954 20 20 20h80c8.284 0 15-6.716 15-15v-50c0-8.284-6.716-15-15-15z" fill="#45f6ff"/><path d="m477 397h-160v80h160c11.046 0 20-8.954 20-20v-40c0-11.046-8.954-20-20-20z" fill="#ff6378"/></g><g><path d="m237 216c-11.046 0-20 8.954-20 20v40c0 11.046 8.954 20 20 20h120c8.284 0 15-6.716 15-15v-50c0-8.284-6.716-15-15-15z" fill="#45f6ff"/><path d="m477 216h-120v80h120c11.046 0 20-8.954 20-20v-40c0-11.046-8.954-20-20-20z" fill="#ff6378"/></g><path d="m477 492h-240c-19.299 0-35-15.701-35-35v-40c0-19.299 15.701-35 35-35h240c19.299 0 35 15.701 35 35v40c0 19.299-15.701 35-35 35zm-240-80c-2.757 0-5 2.243-5 5v40c0 2.757 2.243 5 5 5h240c2.757 0 5-2.243 5-5v-40c0-2.757-2.243-5-5-5z" fill="#f9f9f9"/><path d="m477 311h-240c-19.299 0-35-15.701-35-35v-40c0-19.299 15.701-35 35-35h240c19.299 0 35 15.701 35 35v40c0 19.299-15.701 35-35 35zm-240-80c-2.757 0-5 2.243-5 5v40c0 2.757 2.243 5 5 5h240c2.757 0 5-2.243 5-5v-40c0-2.757-2.243-5-5-5z" fill="#f9f9f9"/><g><path d="m237 216c-11.046 0-20 8.954-20 20v40c0 11.046 8.954 20 20 20h120c8.284 0 15-6.716 15-15v-50c0-8.284-6.716-15-15-15z" fill="#45f6ff"/><g><g><path d="m217 256v20c0 11.046 8.954 20 20 20h120c8.284 0 15-6.716 15-15v-25z" fill="#2ebeef"/></g></g><path d="m477 216h-120v80h120c11.046 0 20-8.954 20-20v-40c0-11.046-8.954-20-20-20z" fill="#ff6378"/><g><path d="m357 256v40h120c11.046 0 20-8.954 20-20v-20z" fill="#d0004f"/></g></g><path d="m477 311h-240c-19.299 0-35-15.701-35-35v-40c0-19.299 15.701-35 35-35h240c19.299 0 35 15.701 35 35v40c0 19.299-15.701 35-35 35zm-240-80c-2.757 0-5 2.243-5 5v40c0 2.757 2.243 5 5 5h240c2.757 0 5-2.243 5-5v-40c0-2.757-2.243-5-5-5z" fill="#f9f9f9"/><g><path d="m482 256v20c0 2.757-2.243 5-5 5h-240c-2.757 0-5-2.243-5-5v-20h-30v20c0 19.299 15.701 35 35 35h240c19.299 0 35-15.701 35-35v-20z" fill="#e4e4ff"/></g><path d="m237 397c-11.046 0-20 8.954-20 20v40c0 11.046 8.954 20 20 20h80c8.284 0 15-6.716 15-15v-50c0-8.284-6.716-15-15-15z" fill="#45f6ff"/><g><path d="m217 437v20c0 11.046 8.954 20 20 20h80c8.284 0 15-6.716 15-15v-25z" fill="#2ebeef"/></g><path d="m477 397h-160v80h160c11.046 0 20-8.954 20-20v-40c0-11.046-8.954-20-20-20z" fill="#ff6378"/><g><path d="m317 477h160c11.046 0 20-8.954 20-20v-20h-180z" fill="#d0004f"/></g><path d="m477 492h-240c-19.299 0-35-15.701-35-35v-40c0-19.299 15.701-35 35-35h240c19.299 0 35 15.701 35 35v40c0 19.299-15.701 35-35 35zm-240-80c-2.757 0-5 2.243-5 5v40c0 2.757 2.243 5 5 5h240c2.757 0 5-2.243 5-5v-40c0-2.757-2.243-5-5-5z" fill="#f9f9f9"/><g><path d="m482 437v20c0 2.757-2.243 5-5 5h-240c-2.757 0-5-2.243-5-5v-20h-30v20c0 19.299 15.701 35 35 35h240c19.299 0 35-15.701 35-35v-20z" fill="#e4e4ff"/></g></g></svg>